<svg width="530" height="609" viewBox="0 0 530 609" fill="none" xmlns="http://www.w3.org/2000/svg">
<path d="M41.5653 566.292C-10.7427 397.298 -12.7854 277.49 33.7559 94.3063C45.8349 46.7639 86.9837 12.3101 135.825 7.75733C230.122 -1.03274 305.037 -2.74959 405.973 7.71038C448.961 12.1653 486.586 40.2083 503.312 80.0597C522.4 125.543 537.57 175.116 523.857 225.699C515.466 256.652 485.406 276.74 453.454 273.989C322.554 262.721 197.876 119.597 165.5 254.5C135.907 377.806 138.665 433.903 160.303 531.961C168.939 571.095 139.739 608.5 99.664 608.5C73.1406 608.5 49.4079 591.629 41.5653 566.292Z" fill="url(#paint0_linear_2002_73)"/>
<path d="M210.464 541.129C190.753 475.239 205.692 423.987 246.087 340.596C266.77 298.548 292.523 283.019 447.865 335.67C468.396 342.628 482.017 362.057 482.017 383.735C482.017 389.21 481.279 394.719 478.982 399.688C457.841 445.409 390.475 465.26 297.765 469.87C402.959 464.906 468.469 463.028 496.959 472.735C512.163 477.915 510.988 496.42 506.107 511.723L502.329 523.57C486.195 574.157 439.195 608.5 386.097 608.5H312.686C267.538 608.5 223.403 584.383 210.464 541.129Z" fill="url(#paint1_linear_2002_73)"/>
<path d="M246.087 340.596C205.692 423.987 190.753 475.239 210.464 541.129C223.403 584.383 267.538 608.5 312.686 608.5H386.097C439.195 608.5 486.195 574.157 502.329 523.57L506.107 511.723C510.988 496.42 512.163 477.915 496.959 472.735C468.128 462.912 401.384 464.953 293.967 470.049C388.633 465.795 457.554 446.031 478.982 399.688C481.279 394.719 482.017 389.21 482.017 383.735C482.017 362.057 468.396 342.628 447.865 335.67C292.523 283.019 266.77 298.548 246.087 340.596ZM165.5 254.5C197.876 119.597 322.554 262.721 453.454 273.989C485.406 276.74 515.466 256.652 523.857 225.699C537.57 175.116 522.4 125.543 503.312 80.0597C486.586 40.2083 448.961 12.1653 405.973 7.71038C305.037 -2.74959 230.122 -1.03274 135.825 7.75733C86.9837 12.3101 45.8349 46.7639 33.7559 94.3063C-12.7854 277.49 -10.7427 397.298 41.5653 566.292C49.4079 591.629 73.1406 608.5 99.664 608.5C139.739 608.5 168.939 571.095 160.303 531.961C138.665 433.903 135.907 377.806 165.5 254.5Z" stroke="black"/>
<defs>
<linearGradient id="paint0_linear_2002_73" x1="513.5" y1="304.5" x2="0.5" y2="304.5" gradientUnits="userSpaceOnUse">
<stop stop-color="#2D2C2C"/>
<stop offset="0.197115" stop-color="#464545"/>
<stop offset="0.276442" stop-color="#8B8B8B"/>
<stop offset="0.552885" stop-color="#221414"/>
<stop offset="1" stop-color="#242323"/>
</linearGradient>
<linearGradient id="paint1_linear_2002_73" x1="513.5" y1="304.5" x2="0.5" y2="304.5" gradientUnits="userSpaceOnUse">
<stop stop-color="#2D2C2C"/>
<stop offset="0.197115" stop-color="#464545"/>
<stop offset="0.276442" stop-color="#8B8B8B"/>
<stop offset="0.552885" stop-color="#221414"/>
<stop offset="1" stop-color="#242323"/>
</linearGradient>
</defs>
</svg>
